<?xml version="1.0" encoding="UTF-8"?>
<svg width="50px" height="50px" viewBox="0 0 50 50" version="1.1" xmlns="http://www.w3.org/2000/svg" xmlns:xlink="http://www.w3.org/1999/xlink">
    <!-- Generator: Sketch 50.2 (55047) - http://www.bohemiancoding.com/sketch -->
    <title>Icon/agerange</title>
    <desc>Created with Sketch.</desc>
    <defs></defs>
    <g id="Icon/agerange" stroke="none" stroke-width="1" fill="none" fill-rule="evenodd">
        <g id="Group" transform="translate(10.000000, 4.000000)" fill="#4495D1" fill-rule="nonzero">
            <path d="M26.5493626,9.57689941 C27.9356044,9.57689941 29.0607473,10.7875503 29.0607473,12.2819882 L29.0607473,22.055716 C29.0607473,23.5491124 27.9356044,24.7608047 26.5493626,24.7608047 L25.9386813,24.7608047 L25.9386813,39.0105562 C25.9386813,40.1623669 25.0722198,41.0965207 24.0017143,41.0965207 L21.0575824,41.0965207 C19.9875604,41.0965207 19.1210989,40.1623669 19.1210989,39.0105562 L19.1210989,24.7608047 L18.5109011,24.7608047 C17.1246593,24.7608047 16,23.5491124 16,22.055716 L16,12.2825089 C16,10.788071 17.1246593,9.57689941 18.5118681,9.57689941 L22.5303736,9.57689941 L26.5493626,9.57689941 Z M20.4053187,7.75024852 C19.3294945,6.99886391 18.6167912,5.69708876 18.6167912,4.21410651 C18.6167912,1.88705325 20.3690549,0 22.5303736,0 C24.6912088,0 26.4425055,1.88653254 26.4425055,4.21410651 C26.4425055,5.69708876 25.7298022,6.99938462 24.6549451,7.75024852 C24.0428132,8.17775148 23.3141538,8.42873373 22.5303736,8.42873373 C21.7461099,8.42873373 21.0179341,8.17775148 20.4053187,7.75024852 Z" id="Combined-Shape"></path>
            <path d="M8.0771509,16.9634289 C9.13853102,16.9634289 10,17.8903673 10,19.0345881 L10,26.5178719 C10,27.6612953 9.13853102,28.5890312 8.0771509,28.5890312 L7.60958093,28.5890312 L7.60958093,39.4993958 C7.60958093,40.381283 6.94617207,41.0965207 6.12653635,41.0965207 L3.87235303,41.0965207 C3.05308752,41.0965207 2.38967866,40.381283 2.38967866,39.4993958 L2.38967866,28.5890312 L1.9224789,28.5890312 C0.861098771,28.5890312 0,27.6612953 0,26.5178719 L0,19.0349868 C0,17.890766 0.861098771,16.9634289 1.92321931,16.9634289 L5,16.9634289 L8.0771509,16.9634289 Z M3.37294536,15.5648482 C2.54923738,14.9895483 2.00355398,13.9928403 2.00355398,12.8573905 C2.00355398,11.0756753 3.34517992,9.63084733 5,9.63084733 C6.65444987,9.63084733 7.99533541,11.0752766 7.99533541,12.8573905 C7.99533541,13.9928403 7.44965201,14.989947 6.62668444,15.5648482 C6.15800385,15.8921671 5.60010366,16.0843324 5,16.0843324 C4.39952614,16.0843324 3.84199615,15.8921671 3.37294536,15.5648482 Z" id="Combined-Shape"></path>
        </g>
    </g>
</svg>