<svg xmlns="http://www.w3.org/2000/svg" viewBox="0 0 50 50"><defs><style>.cls-1{fill:#fff;}.cls-2{fill:#bd5419;}</style></defs><title>Asset 66</title><g id="Layer_2" data-name="Layer 2"><g id="Layer_1-2" data-name="Layer 1"><rect class="cls-1" width="50" height="50"/><path class="cls-2" d="M35.48,34.72H35V50H50V34.7l-.47,0Z"/><path class="cls-2" d="M14.94,14.19c0-2.45,0-4.9,0-7.35q0-3.42,0-6.84H0V14.64H14.94Z"/><path class="cls-2" d="M35,0c0,3.69,0,7.39,0,11.08a.42.42,0,0,0,.31.48,4.71,4.71,0,0,1,2.77,2.74.51.51,0,0,0,.56.37h11l.36,0V0Z"/><path class="cls-2" d="M38.59,17.57a.42.42,0,0,0-.47.32,4.85,4.85,0,0,1-2.81,2.8.43.43,0,0,0-.32.47q0,5.15,0,10.28c0,.12,0,.24,0,.39H50V17.57H38.59Z"/><path class="cls-2" d="M28.62,14.65a.42.42,0,0,0,.3-.22,4.92,4.92,0,0,1,2.85-2.87.41.41,0,0,0,.31-.47V4.24c0-1.41,0-2.83,0-4.24H17.86V14.63l.18,0Z"/><path class="cls-2" d="M14.68,44.52A11.4,11.4,0,0,1,5.41,36.2c-.12-.48-.21-1-.32-1.47H0V50H14.94c0-1.76,0-3.49,0-5.21C14.93,44.68,14.77,44.54,14.68,44.52Z"/><path class="cls-2" d="M24.87,33.38a8.47,8.47,0,1,0-8.79,8.36A8.44,8.44,0,0,0,24.87,33.38Zm-8.51,4.76a4.87,4.87,0,0,1,.07-9.74,4.87,4.87,0,1,1-.07,9.74Z"/><path class="cls-2" d="M27.61,35.21a11.39,11.39,0,0,1-9.39,9.29c-.31,0-.36.16-.36.43,0,1.58,0,3.15,0,4.72,0,.11,0,.21,0,.33H32.05V34.75H27.71Z"/><path class="cls-2" d="M5.05,31.81c1.1-5.52,4.38-8.79,9.87-9.89V17.6H0V31.81Z"/><path class="cls-2" d="M31.79,20.71A4.82,4.82,0,0,1,29,17.91a.44.44,0,0,0-.5-.34H17.88v4.35c5.5,1.09,8.77,4.38,9.86,9.89h4.32c0-.1,0-.16,0-.22V21.09C32.08,20.85,32,20.78,31.79,20.71Z"/><path class="cls-2" d="M33.56,14.14a2,2,0,1,0,0,4,2,2,0,0,0,0-4Z"/><path class="cls-2" d="M16.4,31.32a2,2,0,0,0-2,2,2,2,0,0,0,2,1.95,2,2,0,1,0,0-3.91Z"/></g></g></svg>