<?xml version="1.0" encoding="UTF-8"?>
<svg width="50px" height="50px" viewBox="0 0 50 50" version="1.1" xmlns="http://www.w3.org/2000/svg" xmlns:xlink="http://www.w3.org/1999/xlink">
    <!-- Generator: sketchtool 50.2 (55047) - http://www.bohemiancoding.com/sketch -->
    <title>FE934188-B525-4B78-BE08-58AC1590AC8F</title>
    <desc>Created with sketchtool.</desc>
    <defs></defs>
    <g id="Symbols" stroke="none" stroke-width="1" fill="none" fill-rule="evenodd">
        <g id="Icon/languages" fill="#4495D1" fill-rule="nonzero">
            <g id="iconmonstr-language-9" transform="translate(4.000000, 6.000000)">
                <path d="M14.01136,11.44 L16.30464,11.44 L20.65184,22.88 L18.2776,22.88 L17.33072,20.24 L13.03984,20.24 L12.09824,22.88 L9.64832,22.88 L14.01136,11.44 Z M16.68128,18.4184 L15.17296,14.10464 L13.6752,18.4184 L16.68128,18.4184 Z M30.9232,15.95088 C31.03232,15.5232 31.0992,15.20112 31.1608,14.88608 L29.2248,14.50944 L29.03296,15.38944 C28.38,15.2944 27.68304,15.28208 26.9808,15.35248 C26.99664,14.8808 27.0248,14.41792 27.06704,13.97264 L29.23008,13.97264 L29.23008,12.13872 L27.32752,12.13872 C27.42256,11.67232 27.50176,11.39248 27.58096,11.12672 L25.69072,10.56 C25.55168,11.02288 25.43552,11.47696 25.31936,12.13872 L23.1616,12.13872 L23.1616,13.97264 L25.08352,13.97264 C25.03424,14.56576 25.00256,15.18 24.99376,15.79952 C22.86944,16.5792 21.96832,18.0664 21.96832,19.41456 C21.96832,21.0056 23.22496,22.40656 25.21024,22.22704 C27.676,22.00176 29.32336,20.13968 30.28784,17.84992 C31.28576,18.42544 31.70464,19.39168 31.328,20.28752 C30.98128,21.11648 29.9552,21.90496 27.99808,21.86448 L27.99808,23.83744 C30.16992,23.87088 32.30656,23.04544 33.14608,21.05136 C33.96448,19.10128 33.02992,16.97168 30.9232,15.95088 Z M28.37824,17.29904 C28.07024,17.98016 27.6672,18.656 27.15152,19.19104 C27.07232,18.62256 27.01776,18.00128 26.98784,17.336 C27.45952,17.2744 27.93296,17.26384 28.37824,17.29904 Z M25.0448,17.93616 C25.0976,18.76864 25.19264,19.536 25.32288,20.22064 C23.56816,20.54272 23.49776,18.81088 25.0448,17.93616 Z M21.12,3.52 C30.82464,3.52 38.72,9.84192 38.72,17.61232 C38.72,26.26624 29.6648,31.62368 21.2784,31.62368 C17.86928,31.62368 15.32256,30.92496 13.54496,30.49024 C11.78496,31.56912 10.73952,32.31536 6.02624,33.69344 C6.96784,31.27696 7.29696,28.85696 7.084,26.18704 C5.61088,24.42704 3.52,21.96304 3.52,17.61232 C3.52,9.84192 11.41536,3.52 21.12,3.52 Z M21.12,1.3500312e-15 C9.96512,1.3500312e-15 -1.77635684e-15,7.43776 -1.77635684e-15,17.61232 C-1.77635684e-15,21.22032 1.30064,24.7632 3.60272,27.51232 C3.69952,30.73312 1.80224,35.35488 0.09504,38.72 C4.67456,37.8928 11.1848,36.06592 14.13632,34.25664 C16.63024,34.86384 19.01856,35.14192 21.28016,35.14192 C33.74624,35.14192 42.24176,26.6288 42.24176,17.61056 C42.24,7.3832 32.20624,-1.77635684e-15 21.12,1.3500312e-15 Z" id="Shape"></path>
            </g>
        </g>
    </g>
</svg>